<svg preserveAspectRatio="none" overflow="visible" style="display: block;" width="24" height="24" viewBox="0 0 24 24" fill="none" xmlns="http://www.w3.org/2000/svg">
<g id="basil:heart-solid">
<path id="Vector" d="M7.47429 2.5C3.97943 2.5 1 5.08196 1 8.43353C1 10.7461 2.09623 12.6925 3.54949 14.305C4.99897 15.9125 6.86834 17.2618 8.55669 18.3914L11.472 20.3403C11.6279 20.4444 11.8118 20.5 12 20.5C12.1882 20.5 12.3721 20.4444 12.528 20.3403L15.4433 18.3914C17.1329 17.2618 19.001 15.9125 20.4493 14.305C21.9038 12.6925 23 10.7461 23 8.43353C23 5.08196 20.0206 2.5 16.5257 2.5C14.723 2.5 13.1377 3.33417 12 4.41412C10.8623 3.33417 9.27577 2.5 7.47429 2.5Z" fill="#757575"/>
</g>
</svg>
